<?xml version="1.0" encoding="utf-8"?>
<svg width="31" height="31" viewBox="0 0 31 31" fill="none" xmlns="http://www.w3.org/2000/svg">
  <path fill-rule="evenodd" clip-rule="evenodd" d="M -0.163 14.197 C -0.163 7.702 -0.163 4.454 1.855 2.437 C 3.873 0.419 7.12 0.419 13.615 0.419 L 17.059 0.419 C 23.554 0.419 26.802 0.419 28.819 2.437 C 30.837 4.454 30.837 7.702 30.837 14.197 L 30.837 17.641 C 30.837 24.136 30.837 27.384 28.819 29.401 C 26.802 31.419 23.554 31.419 17.059 31.419 L 13.615 31.419 C 7.12 31.419 3.873 31.419 1.855 29.401 C -0.163 27.384 -0.163 24.136 -0.163 17.641 L -0.163 14.197 Z M 25.67 8.169 C 25.67 9.596 24.514 10.752 23.087 10.752 C 21.66 10.752 20.504 9.596 20.504 8.169 C 20.504 6.742 21.66 5.586 23.087 5.586 C 24.514 5.586 25.67 6.742 25.67 8.169 Z M 18.782 17.641 C 18.782 19.544 17.24 21.086 15.337 21.086 C 13.435 21.086 11.893 19.544 11.893 17.641 C 11.893 15.739 13.435 14.197 15.337 14.197 C 17.24 14.197 18.782 15.739 18.782 17.641 Z M 22.226 17.641 C 22.226 21.446 19.142 24.53 15.337 24.53 C 11.533 24.53 8.448 21.446 8.448 17.641 C 8.448 13.837 11.533 10.752 15.337 10.752 C 19.142 10.752 22.226 13.837 22.226 17.641 Z" style="fill: rgb(147, 49, 175);"/>
</svg>