<?xml version="1.0" encoding="utf-8"?>
<svg width="144" height="38" viewBox="0 0 144 38" fill="none" xmlns="http://www.w3.org/2000/svg">
  <path fill-rule="evenodd" clip-rule="evenodd" d="M 2.641 17.464 C 2.641 10.969 2.641 7.721 4.658 5.704 C 6.676 3.686 9.924 3.686 16.419 3.686 L 19.863 3.686 C 26.358 3.686 29.605 3.686 31.623 5.704 C 33.641 7.721 33.641 10.969 33.641 17.464 L 33.641 20.908 C 33.641 27.403 33.641 30.651 31.623 32.668 C 29.605 34.686 26.358 34.686 19.863 34.686 L 16.419 34.686 C 9.924 34.686 6.676 34.686 4.658 32.668 C 2.641 30.651 2.641 27.403 2.641 20.908 L 2.641 17.464 Z M 28.474 11.436 C 28.474 12.863 27.317 14.019 25.891 14.019 C 24.464 14.019 23.307 12.863 23.307 11.436 C 23.307 10.009 24.464 8.853 25.891 8.853 C 27.317 8.853 28.474 10.009 28.474 11.436 Z M 21.585 20.908 C 21.585 22.811 20.043 24.353 18.141 24.353 C 16.238 24.353 14.696 22.811 14.696 20.908 C 14.696 19.006 16.238 17.464 18.141 17.464 C 20.043 17.464 21.585 19.006 21.585 20.908 Z M 25.03 20.908 C 25.03 24.713 21.945 27.797 18.141 27.797 C 14.336 27.797 11.252 24.713 11.252 20.908 C 11.252 17.104 14.336 14.019 18.141 14.019 C 21.945 14.019 25.03 17.104 25.03 20.908 Z" style="fill: rgb(152, 43, 184);"/>
  <text style="fill: rgb(51, 51, 51); font-family: Arial, sans-serif; font-size: 19px; white-space: pre;" x="35.777" y="25.733">MystiSketch</text>
</svg>